<?xml version="1.0" encoding="utf-8"?>
<!-- Generator: Adobe Illustrator 16.0.1, SVG Export Plug-In . SVG Version: 6.00 Build 0)  -->
<!DOCTYPE svg PUBLIC "-//W3C//DTD SVG 1.1//EN" "http://www.w3.org/Graphics/SVG/1.1/DTD/svg11.dtd">
<svg version="1.1" id="Layer_1" xmlns="http://www.w3.org/2000/svg" xmlns:xlink="http://www.w3.org/1999/xlink" x="0px" y="0px"
	 width="195.474px" height="89.193px" viewBox="0 0 195.474 89.193" enable-background="new 0 0 195.474 89.193"
	 xml:space="preserve">
<polygon fill="#76C9C1" points="131.817,0 131.817,88.856 195.474,88.856 195.474,82.079 138.595,82.079 138.595,0 "/>
<polygon fill="#76C9C1" points="155.482,0 155.482,64.694 195.474,64.694 195.474,57.917 162.26,57.917 162.26,0 "/>
<path fill="#76C9C1" d="M114.367,89.193V0h-3.869L61.682,59.771H44.411c-8.45,0-15.325-6.875-15.325-15.326
	S35.961,29.12,44.411,29.12h20.461l5.843-6.777H44.411c-12.188,0-22.103,9.916-22.103,22.103s9.915,22.103,22.103,22.103h11.735
	l-12.699,15.55l-1.543-0.102C22.207,80.695,6.778,64.2,6.778,44.445c0-20.751,16.882-37.633,37.633-37.633H82.99l5.591-6.778h-44.17
	C19.923,0.034,0,19.957,0,44.445s19.923,44.411,44.411,44.411h2.267l60.912-74.581v45.496H82.525l-5.535,6.777h30.6v22.645H114.367z
	"/>
</svg>
