<?xml version="1.0" encoding="utf-8"?>
<!-- Generator: Adobe Illustrator 16.0.1, SVG Export Plug-In . SVG Version: 6.00 Build 0)  -->
<!DOCTYPE svg PUBLIC "-//W3C//DTD SVG 1.1//EN" "http://www.w3.org/Graphics/SVG/1.1/DTD/svg11.dtd">
<svg version="1.1" id="Layer_1" xmlns="http://www.w3.org/2000/svg" xmlns:xlink="http://www.w3.org/1999/xlink" x="0px" y="0px"
	 width="30.012px" height="30.013px" viewBox="0 0 30.012 30.013" enable-background="new 0 0 30.012 30.013" xml:space="preserve">
<path id="White_2_" fill="#FFFFFF" d="M28.352,0H1.654C0.74,0-0.001,0.743-0.001,1.657v26.698c0,0.916,0.741,1.657,1.655,1.657
	h14.374V18.39h-3.911v-4.528h3.911v-3.341c0-3.877,2.367-5.986,5.826-5.986c1.656,0,3.08,0.123,3.494,0.178v4.052h-2.396
	c-1.883,0-2.246,0.894-2.246,2.205v2.893h4.484l-0.582,4.528h-3.902v11.623h7.646c0.916,0,1.658-0.741,1.658-1.657V1.657
	C30.01,0.743,29.268,0,28.352,0z"/>
</svg>
