<?xml version="1.0" encoding="utf-8"?>
<!-- Generator: Adobe Illustrator 16.0.1, SVG Export Plug-In . SVG Version: 6.00 Build 0)  -->
<!DOCTYPE svg PUBLIC "-//W3C//DTD SVG 1.1//EN" "http://www.w3.org/Graphics/SVG/1.1/DTD/svg11.dtd">
<svg version="1.1" id="Layer_1" xmlns="http://www.w3.org/2000/svg" xmlns:xlink="http://www.w3.org/1999/xlink" x="0px" y="0px"
	 width="33.48px" height="32.655px" viewBox="-3.74 -4.414 33.48 32.655" enable-background="new -3.74 -4.414 33.48 32.655"
	 xml:space="preserve">
<path fill="#FFFFFF" d="M13.003-4.414c-9.244,0-16.741,7.496-16.741,16.742c0,7.396,4.796,13.672,11.45,15.887
	c0.836,0.149,1.14-0.363,1.14-0.808c0-0.396-0.014-1.452-0.021-2.849c-4.658,1.012-5.643-2.243-5.643-2.243
	c-0.759-1.934-1.857-2.45-1.857-2.45c-1.521-1.037,0.114-1.02,0.114-1.02c1.68,0.118,2.564,1.726,2.564,1.726
	c1.494,2.559,3.921,1.819,4.873,1.392c0.152-1.081,0.584-1.818,1.063-2.238c-3.719-0.423-7.627-1.857-7.627-8.274
	c0-1.828,0.65-3.323,1.725-4.493c-0.172-0.421-0.75-2.125,0.164-4.429c0,0,1.405-0.449,4.604,1.718
	c1.337-0.372,2.767-0.557,4.192-0.566c1.42,0.01,2.854,0.194,4.192,0.566c3.197-2.167,4.6-1.718,4.6-1.718
	c0.916,2.305,0.338,4.007,0.166,4.429c1.072,1.17,1.721,2.666,1.721,4.493c0,6.433-3.914,7.848-7.645,8.261
	c0.6,0.517,1.137,1.537,1.137,3.102c0,2.237-0.02,4.039-0.02,4.589c0,0.448,0.301,0.971,1.148,0.807
	c6.648-2.217,11.439-8.488,11.439-15.884C29.745,3.082,22.249-4.414,13.003-4.414z"/>
</svg>
