<?xml version="1.0" encoding="utf-8"?>
<!-- Generator: Adobe Illustrator 16.0.1, SVG Export Plug-In . SVG Version: 6.00 Build 0)  -->
<!DOCTYPE svg PUBLIC "-//W3C//DTD SVG 1.1//EN" "http://www.w3.org/Graphics/SVG/1.1/DTD/svg11.dtd">
<svg version="1.1" id="Layer_1" xmlns="http://www.w3.org/2000/svg" xmlns:xlink="http://www.w3.org/1999/xlink" x="0px" y="0px"
	 width="231.21px" height="18.643px" viewBox="237.583 81.331 231.21 18.643" enable-background="new 237.583 81.331 231.21 18.643"
	 xml:space="preserve">
<polyline fill="#534F5B" points="259.57,81.341 272.977,81.341 272.977,84.3 259.57,84.3 "/>
<polyline fill="#534F5B" points="259.57,89.231 272.977,89.231 272.977,92.03 259.57,92.03 "/>
<path fill="#534F5B" d="M291.578,99.973l-4.585-7.01h-0.133l-4.585,7.01h-3.918l6.397-9.568l-5.944-9.064h3.892l4.158,6.291h0.133
	l4.158-6.291h3.891l-5.943,9.064l6.397,9.568H291.578z"/>
<path fill="#534F5B" d="M314.602,82.967c1.297,1.084,1.946,2.755,1.946,5.012c0,2.256-0.663,3.909-1.986,4.959
	c-1.324,1.047-3.354,1.572-6.091,1.572h-3.305v5.463h-3.145V81.341h6.397C311.244,81.341,313.305,81.883,314.602,82.967z
	 M312.376,90.657c0.631-0.667,0.946-1.644,0.946-2.932c0-1.288-0.4-2.199-1.2-2.732c-0.799-0.533-2.052-0.799-3.758-0.799h-3.198
	v7.463h3.652C310.559,91.656,311.746,91.323,312.376,90.657z"/>
<path fill="#534F5B" d="M359.639,87.392c0,3.075-1.342,5.01-4.025,5.811l4.878,6.77h-3.998l-4.452-6.264h-4.132v6.264h-3.146V81.341
	h6.931c2.842,0,4.877,0.479,6.104,1.439C359.025,83.74,359.639,85.277,359.639,87.392z M355.455,90.031
	c0.639-0.551,0.959-1.435,0.959-2.653c0-1.217-0.33-2.052-0.986-2.506c-0.658-0.453-1.831-0.68-3.519-0.68h-3.999v6.665h3.918
	C353.605,90.857,354.814,90.582,355.455,90.031z"/>
<path fill="#534F5B" d="M367.711,81.341h3.145v18.632h-3.145V81.341z"/>
<path fill="#534F5B" d="M382.711,99.973h-3.145V81.341h4.904l5.623,11.702l5.625-11.702h4.877v18.632h-3.145V85.42l-6.504,12.928
	h-1.76l-6.477-12.928V99.973L382.711,99.973z"/>
<path fill="#534F5B" d="M444.248,81.341h3.145v18.632h-3.411l-10.556-13.595v13.595h-3.146V81.341h3.146l10.822,13.915V81.341z"/>
<path fill="#534F5B" d="M463.142,84.22v15.752h-3.146V84.22h-5.651v-2.879h14.448v2.879H463.142z"/>
<path fill="#534F5B" d="M323.793,81.341h13.407V84.3h-13.407 M323.793,97.014h13.407v2.96h-13.407 M323.793,89.231h13.407v2.799
	h-13.407"/>
<path fill="#534F5B" d="M409.307,81.341h13.408V84.3h-13.408 M409.307,97.014h13.408v2.96h-13.408 M409.307,89.231h13.408v2.799
	h-13.408"/>
<g>
	<path fill="#534F5B" d="M238.631,82.264h-1.037v-0.933h3.145v0.933h-1.037v5.305h-1.071V82.264z"/>
	<path fill="#534F5B" d="M242.407,87.569v-6.237h1.072v2.54h1.14v-2.54h1.071v6.237h-1.071v-2.765h-1.14v2.765H242.407z"/>
	<path fill="#534F5B" d="M247.764,87.569v-6.237h2.869v0.933h-1.797v1.607h1.383v0.933h-1.383v1.832h1.918v0.933L247.764,87.569
		L247.764,87.569z"/>
</g>
<polyline fill="#534F5B" points="237.583,97.014 272.977,97.014 272.977,99.973 237.583,99.973 "/>
</svg>
