<?xml version="1.0" encoding="utf-8"?>
<!-- Generator: Adobe Illustrator 16.0.1, SVG Export Plug-In . SVG Version: 6.00 Build 0)  -->
<!DOCTYPE svg PUBLIC "-//W3C//DTD SVG 1.1//EN" "http://www.w3.org/Graphics/SVG/1.1/DTD/svg11.dtd">
<svg version="1.1" id="Layer_1" xmlns="http://www.w3.org/2000/svg" xmlns:xlink="http://www.w3.org/1999/xlink" x="0px" y="0px"
	 width="294.085px" height="23.712px" viewBox="206.146 78.796 294.085 23.712"
	 enable-background="new 206.146 78.796 294.085 23.712" xml:space="preserve">
<polyline fill="#534F5B" points="234.111,78.809 251.164,78.809 251.164,82.572 234.111,82.572 "/>
<polyline fill="#534F5B" points="234.111,88.844 251.164,88.844 251.164,92.404 234.111,92.404 "/>
<path fill="#534F5B" d="M274.823,102.507l-5.832-8.916h-0.169l-5.832,8.916h-4.983l8.138-12.17l-7.562-11.529h4.95l5.289,8.001
	h0.169l5.289-8.001h4.949l-7.559,11.529l8.137,12.17H274.823z"/>
<path fill="#534F5B" d="M304.108,80.876c1.65,1.38,2.476,3.505,2.476,6.375c0,2.869-0.843,4.973-2.526,6.308
	c-1.684,1.332-4.267,2-7.747,2h-4.204v6.948h-4.001V78.809h8.138C299.837,78.809,302.459,79.498,304.108,80.876z M301.278,90.658
	c0.802-0.849,1.203-2.091,1.203-3.729s-0.509-2.797-1.525-3.476c-1.017-0.678-2.61-1.017-4.78-1.017h-4.067v9.492h4.645
	C298.966,91.929,300.477,91.505,301.278,90.658z"/>
<path fill="#534F5B" d="M361.393,86.505c0,3.911-1.706,6.373-5.12,7.392l6.205,8.61h-5.086l-5.662-7.967h-5.255v7.967h-4.001V78.809
	h8.815c3.615,0,6.203,0.61,7.764,1.831C360.612,81.86,361.393,83.815,361.393,86.505z M356.071,89.862
	c0.812-0.701,1.22-1.825,1.22-3.375c0-1.548-0.42-2.61-1.254-3.187c-0.838-0.577-2.329-0.865-4.477-0.865h-5.086v8.478h4.984
	C353.719,90.913,355.257,90.562,356.071,89.862z"/>
<path fill="#534F5B" d="M371.66,78.809h4v23.699h-4V78.809z"/>
<path fill="#534F5B" d="M390.739,102.507h-4V78.809h6.238l7.152,14.884l7.154-14.884h6.203v23.699h-3.999V83.997l-8.272,16.443
	h-2.238l-8.238-16.443V102.507L390.739,102.507z"/>
<path fill="#534F5B" d="M469.011,78.809h4v23.699h-4.339l-13.426-17.291v17.291h-4.001V78.809h4.001l13.765,17.699V78.809z"/>
<path fill="#534F5B" d="M493.042,82.471v20.036h-4.001V82.471h-7.188v-3.662h18.377v3.662H493.042z"/>
<path fill="#534F5B" d="M315.8,78.809h17.053v3.764H315.8 M315.8,98.743h17.053v3.765H315.8 M315.8,88.844h17.053v3.561H315.8"/>
<path fill="#534F5B" d="M424.567,78.809h17.055v3.764h-17.055 M424.567,98.743h17.055v3.765h-17.055 M424.567,88.844h17.055v3.561
	h-17.055"/>
<g>
	<path fill="#534F5B" d="M207.479,79.982h-1.318v-1.187h3.999v1.187h-1.318v6.747h-1.362V79.982z"/>
	<path fill="#534F5B" d="M212.281,86.729v-7.933h1.363v3.23h1.45v-3.23h1.362v7.933h-1.362v-3.516h-1.45v3.516H212.281z"/>
	<path fill="#534F5B" d="M219.095,86.729v-7.933h3.648v1.187h-2.286v2.044h1.759v1.187h-1.759v2.33h2.439v1.187L219.095,86.729
		L219.095,86.729z"/>
</g>
<polyline fill="#534F5B" points="206.146,98.743 251.164,98.743 251.164,102.507 206.146,102.507 "/>
</svg>
