<?xml version="1.0" encoding="utf-8"?>
<!-- Generator: Adobe Illustrator 16.0.1, SVG Export Plug-In . SVG Version: 6.00 Build 0)  -->
<!DOCTYPE svg PUBLIC "-//W3C//DTD SVG 1.1//EN" "http://www.w3.org/Graphics/SVG/1.1/DTD/svg11.dtd">
<svg version="1.1" id="Layer_1" xmlns="http://www.w3.org/2000/svg" xmlns:xlink="http://www.w3.org/1999/xlink" x="0px" y="0px"
	 width="30.918px" height="25.13px" viewBox="-3.281 -0.65 30.918 25.13" enable-background="new -3.281 -0.65 30.918 25.13"
	 xml:space="preserve">
<path fill="#FFFFFF" d="M27.635,2.323c-1.136,0.505-2.361,0.849-3.641,1c1.309-0.785,2.316-2.027,2.788-3.51
	c-1.225,0.727-2.582,1.255-4.028,1.541C21.6,0.12,19.948-0.65,18.124-0.65c-3.505,0-6.342,2.84-6.342,6.343
	c0,0.497,0.057,0.98,0.165,1.444C6.673,6.874,2,4.348-1.129,0.512C-1.674,1.448-1.987,2.536-1.987,3.7c0,2.2,1.119,4.142,2.821,5.28
	c-1.039-0.031-2.017-0.319-2.872-0.793c0,0.025,0,0.053,0,0.079c0,3.075,2.187,5.64,5.089,6.221
	c-0.532,0.143-1.094,0.221-1.672,0.221c-0.41,0-0.806-0.039-1.194-0.111c0.806,2.517,3.15,4.352,5.926,4.403
	C3.938,20.701,1.2,21.715-1.77,21.715c-0.511,0-1.017-0.027-1.513-0.086c2.808,1.798,6.142,2.851,9.724,2.851
	c11.667,0,18.044-9.668,18.044-18.05c0-0.275-0.005-0.549-0.016-0.821C25.709,4.712,26.786,3.596,27.635,2.323z"/>
</svg>
